<svg xmlns="http://www.w3.org/2000/svg" width="512" height="512" viewBox="0 0 502 502"><g xmlns="http://www.w3.org/2000/svg"><path d="M277.72 161.287c-4.962-11.288-16.219-25.197-42.221-13.767l-22.914 10.073-21.834-49.668c-13.15-29.914-45.796-32.126-62.368-16.31-11.998 11.451-17.455 29.705-9.563 47.657l77.437 177.259c-18.861-14.285-54.884-14.124-71.008 2.481l.421-.637c-17.126 17.637-14.258 42.636 11.729 64.478L276.079 492l198.672-87.338 1.081-17.311a282.766 282.766 0 00-23.358-131.413l-15.038-34.208a67.188 67.188 0 00-2.556-5.193c-10.488-19.174-33.962-27.078-54.004-18.363l-14.929 6.492-16.872-38.38c-7.384-16.797-27.068-24.438-43.812-16.932l-27.543 11.933z" fill="#fff" data-original="#e6e6e6"/><path d="M461.63 251.914l-15.038-34.207a76.579 76.579 0 00-2.938-5.968c-6.272-11.469-16.565-20.103-28.981-24.313a52.383 52.383 0 00-37.784 1.578l-5.795 2.52-7.405-16.845-.003-.007-5.456-12.41c-4.662-10.604-13.188-18.74-24.007-22.907-10.766-4.146-22.478-3.845-32.987.846l-19.228 8.33c-3.557-5.06-7.877-8.921-12.914-11.528-10.521-5.445-23.178-4.987-37.621 1.363l-13.759 6.048-17.81-40.514c-7.25-16.493-20.706-27.81-36.916-31.05-15.239-3.046-30.755 1.265-41.51 11.53-16.139 15.402-20.776 38.528-11.822 58.895l67.466 154.435c-5.649-1.143-11.602-1.666-17.643-1.519-15.691.387-29.8 5.377-39.247 13.79-.62.402-1.203.878-1.737 1.428-9.494 9.777-14.174 21.604-13.537 34.201.797 15.743 9.79 31.268 26.006 44.898.082.069.165.137.25.203l138.681 109.147a9.99 9.99 0 0010.209 1.296l198.672-87.337a9.998 9.998 0 005.956-8.531l1.081-17.312c2.9-46.426-5.462-93.475-24.183-136.06zm-81.017 10.959a10 10 0 009.16 5.978c1.344 0 2.71-.272 4.019-.848 5.056-2.222 7.353-8.123 5.13-13.179l-19.779-44.992 5.722-2.488c15.467-6.727 33.2-.713 41.244 13.994a56.999 56.999 0 012.173 4.416l15.039 34.208c17.441 39.676 25.233 83.511 22.532 126.766l-.702 11.231-187.601 82.472-133.835-105.334c-11.612-9.796-18.28-20.623-18.78-30.498-.324-6.402 1.87-12.364 6.526-17.748.336-.267.658-.558.964-.873 11.971-12.329 41.824-13.181 57.414-1.748l34.447 33.084a9.968 9.968 0 006.926 2.788 9.974 9.974 0 007.214-3.073c3.826-3.983 3.698-10.314-.285-14.14l-33.516-32.191-76.648-175.452c-6.717-15.28-.627-28.821 7.313-36.398 5.953-5.682 15.066-8.129 23.782-6.386 9.87 1.973 17.87 8.893 22.527 19.486l58.06 132.072a10 10 0 009.16 5.978c1.344 0 2.71-.272 4.019-.848 5.056-2.223 7.353-8.123 5.13-13.179l-32.201-73.249 13.76-6.049c8.636-3.795 15.493-4.438 20.379-1.909 3.458 1.79 6.373 5.338 8.663 10.546l34.24 77.888a10 10 0 009.16 5.978c1.344 0 2.71-.272 4.019-.848 5.056-2.223 7.353-8.123 5.13-13.179l-30.194-68.685 18.32-7.937c.039-.017.077-.033.115-.051 5.625-2.521 11.904-2.685 17.681-.46 5.809 2.237 10.385 6.602 12.886 12.292l40.687 92.565z" data-original="#000000"/><path d="M420.718 407.562a10 10 0 01-9.163-5.986c-2.218-5.058.083-10.956 5.141-13.174l9.865-4.327c5.059-2.219 10.957.083 13.174 5.141 2.218 5.058-.083 10.956-5.141 13.174l-9.865 4.327a9.95 9.95 0 01-4.011.845zm-135.279 59.557a10 10 0 01-9.163-5.986c-2.218-5.058.083-10.956 5.141-13.174l105.353-46.208c5.06-2.218 10.957.084 13.174 5.141 2.218 5.058-.083 10.956-5.141 13.174L289.45 466.275a9.965 9.965 0 01-4.011.844zM136.8 53.177c-4.644 0-8.807-3.253-9.783-7.98l-6.85-33.174c-1.117-5.409 2.362-10.699 7.771-11.815 5.407-1.114 10.699 2.363 11.815 7.771l6.85 33.174c1.117 5.409-2.362 10.699-7.771 11.816-.681.14-1.362.208-2.032.208zM32.524 51.649a9.95 9.95 0 01-5.256-1.5l-6.907-4.277c-4.695-2.908-6.145-9.071-3.236-13.767 2.908-4.696 9.071-6.145 13.767-3.236l6.907 4.277c4.695 2.908 6.145 9.071 3.236 13.767a9.995 9.995 0 01-8.511 4.736zm54.748 36.273a9.952 9.952 0 01-5.486-1.646L60.454 72.245c-4.614-3.035-5.895-9.236-2.86-13.85s9.235-5.895 13.85-2.86l21.333 14.031c4.614 3.035 5.895 9.236 2.86 13.85a9.994 9.994 0 01-8.365 4.506zm-43.628 66.443c-4.644 0-8.807-3.253-9.783-7.98-1.117-5.409 2.362-10.699 7.771-11.815l33.174-6.85c5.411-1.115 10.699 2.363 11.816 7.771 1.117 5.409-2.362 10.699-7.771 11.816l-33.174 6.85c-.682.14-1.363.208-2.033.208zm44.013 79.274a9.952 9.952 0 01-5.486-1.646c-4.614-3.035-5.895-9.236-2.86-13.85l18.614-28.301c3.034-4.614 9.235-5.896 13.85-2.86 4.614 3.035 5.895 9.236 2.86 13.85l-18.614 28.301a9.99 9.99 0 01-8.364 4.506zm143.481-120.48c-4.644 0-8.807-3.253-9.783-7.979-1.117-5.409 2.362-10.699 7.771-11.816l22.116-4.567c5.41-1.117 10.699 2.362 11.816 7.771s-2.362 10.699-7.771 11.816l-22.116 4.567c-.683.14-1.363.208-2.033.208zm62.202-12.844c-4.644 0-8.807-3.253-9.783-7.979-1.117-5.409 2.362-10.699 7.771-11.816l6.912-1.427c5.412-1.116 10.699 2.363 11.816 7.771 1.117 5.409-2.362 10.699-7.771 11.816l-6.912 1.427c-.682.14-1.363.208-2.033.208zm-96.947-36.687a9.952 9.952 0 01-5.486-1.646c-4.614-3.035-5.895-9.236-2.86-13.85l18.614-28.301c3.034-4.614 9.235-5.896 13.85-2.86 4.614 3.035 5.895 9.236 2.86 13.85l-18.614 28.301a9.99 9.99 0 01-8.364 4.506z" data-original="#000000"/></g></svg>